# xmcd
#
# Track frame offsets:
#	150
#	20600
#	35089
#	53856
#	70360
#	85889
#	100289
#	116329
#	138814
#	158723
#	177411
#	192788
#	212341
#	228423
#	239389
#	267190
#
# Disc length: 3568 seconds
#
# Revision: 1
# Processed by: cddbd v1.5.1PL2 Copyright (c) Steve Scherf et al.
# Submitted via: audiograbber 1.83.01
#
DISCID=d70dee10
DTITLE=All Star Karaoke - ASK39 2
DYEAR=1900
DGENRE=Karaoke Country
TTITLE0=Martina BcBride - Where Would You Be
TTITLE1=Martina BcBride - In My Daughter's Eyes
TTITLE2=Pat Green - Wave on Wave
TTITLE3=Patty Loveless - Lovin' All Night
TTITLE4=Randy Travis - Three Wooden Crosses
TTITLE5=Rascal Flatts - Love You Out Loud
TTITLE6=Reba McEntre - I'm Gonna Take That Mountain
TTITLE7=Rick Trevino - In My Dreams
TTITLE8=Rodney Atkins - Honesty (Write Me A List)
TTITLE9=Sara Evans - Perfect
TTITLE10=Terri Clark - I Just Wanna Be Mad
TTITLE11=Trace Adkins - Then They Do
TTITLE12=Trace Adkins - Hot Mama
TTITLE13=Tracy Byrd - Drinkin' Bone
TTITLE14=Wynonna - What The World Needs
TTITLE15=Datta Track - Data Track
EXTD=
EXTT0=
EXTT1=
EXTT2=
EXTT3=
EXTT4=
EXTT5=
EXTT6=
EXTT7=
EXTT8=
EXTT9=
EXTT10=
EXTT11=
EXTT12=
EXTT13=
EXTT14=
EXTT15=
PLAYORDER=
